<svg viewBox="0 0 24 24" xmlns="http://www.w3.org/2000/svg"><path d="M2 2h20v20H2V2zm12.3 11.2c-.3-.5-.7-.9-1.2-1.2-.5-.3-1.1-.4-1.8-.4-.6 0-1.1.1-1.6.4-.4.3-.7.6-.9 1.1-.2.4-.3.9-.3 1.5 0 .6.1 1.1.3 1.5.2.4.5.8.9 1 .4.2.9.3 1.5.3.7 0 1.2-.1 1.7-.4.5-.3.8-.7 1.1-1.2l2.3 1.4c-.6.9-1.3 1.7-2.3 2.2-1 .5-2.2.8-3.6.8-1.4 0-2.6-.3-3.7-.9-1-.6-1.8-1.5-2.4-2.7-.6-1.2-.8-2.6-.8-4.2s.3-3 .9-4.2c.6-1.2 1.4-2.1 2.5-2.7 1.1-.6 2.3-.9 3.7-.9 1.5 0 2.8.3 3.8.9 1 .6 1.7 1.4 2.2 2.4l-2.4 1.4zm6.6-4.5h-5.2v2.2h1.4v6.6h2.4v-6.6h1.4V8.7z" /></svg>